<?xml version="1.0" encoding="UTF-8" standalone="no"?>
<!DOCTYPE svg PUBLIC "-//W3C//DTD SVG 1.1//EN"
 "http://www.w3.org/Graphics/SVG/1.1/DTD/svg11.dtd">
<!-- Generated by graphviz version 8.0.3 (20230418.1244)
 -->
<!-- Pages: 1 -->
<svg width="207pt" height="476pt"
 viewBox="0.00 0.00 206.50 476.00" xmlns="http://www.w3.org/2000/svg" xmlns:xlink="http://www.w3.org/1999/xlink">
<g id="graph0" class="graph" transform="scale(1 1) rotate(0) translate(4 472)">
<polygon fill="white" stroke="none" points="-4,4 -4,-472 202.5,-472 202.5,4 -4,4"/>
<!-- 主影像 -->
<g id="node1" class="node">
<title>主影像</title>
<polygon fill="#feb64d" stroke="#feb64d" points="59,-468 4,-468 0,-464 0,-432 55,-432 59,-436 59,-468"/>
<polyline fill="none" stroke="#feb64d" points="55,-464 0,-464"/>
<polyline fill="none" stroke="#feb64d" points="55,-464 55,-432"/>
<polyline fill="none" stroke="#feb64d" points="55,-464 59,-468"/>
<text text-anchor="middle" x="29.5" y="-446.3" font-family="Times,serif" font-size="14.00">主影像</text>
</g>
<!-- 影像配准 -->
<g id="node2" class="node">
<title>影像配准</title>
<polygon fill="#cfdbf6" stroke="#cfdbf6" points="104.5,-396 30.5,-396 30.5,-360 104.5,-360 104.5,-396"/>
<text text-anchor="middle" x="67.5" y="-374.3" font-family="Times,serif" font-size="14.00">影像配准</text>
</g>
<!-- 主影像&#45;&gt;影像配准 -->
<g id="edge1" class="edge">
<title>主影像&#45;&gt;影像配准</title>
<path fill="none" stroke="#b4dbff" stroke-width="1.5" stroke-dasharray="5,2" d="M38.89,-431.7C43.03,-424.07 48,-414.92 52.63,-406.4"/>
<polygon fill="#b4dbff" stroke="#b4dbff" stroke-width="1.5" points="55.52,-407.56 57.21,-397.1 49.37,-404.22 55.52,-407.56"/>
</g>
<!-- 去平地效应 -->
<g id="node3" class="node">
<title>去平地效应</title>
<polygon fill="#cfdbf6" stroke="#cfdbf6" points="157.5,-324 69.5,-324 69.5,-288 157.5,-288 157.5,-324"/>
<text text-anchor="middle" x="113.5" y="-302.3" font-family="Times,serif" font-size="14.00">去平地效应</text>
</g>
<!-- 影像配准&#45;&gt;去平地效应 -->
<g id="edge2" class="edge">
<title>影像配准&#45;&gt;去平地效应</title>
<path fill="none" stroke="#b4dbff" stroke-width="1.5" stroke-dasharray="5,2" d="M78.87,-359.7C83.94,-351.98 90.03,-342.71 95.68,-334.11"/>
<polygon fill="#b4dbff" stroke="#b4dbff" stroke-width="1.5" points="98.69,-335.38 101.26,-325.1 92.84,-331.54 98.69,-335.38"/>
</g>
<!-- 滤波 -->
<g id="node4" class="node">
<title>滤波</title>
<polygon fill="#cfdbf6" stroke="#cfdbf6" points="140.5,-252 86.5,-252 86.5,-216 140.5,-216 140.5,-252"/>
<text text-anchor="middle" x="113.5" y="-230.3" font-family="Times,serif" font-size="14.00">滤波</text>
</g>
<!-- 去平地效应&#45;&gt;滤波 -->
<g id="edge3" class="edge">
<title>去平地效应&#45;&gt;滤波</title>
<path fill="none" stroke="#b4dbff" stroke-width="1.5" stroke-dasharray="5,2" d="M113.5,-287.7C113.5,-280.49 113.5,-271.93 113.5,-263.82"/>
<polygon fill="#b4dbff" stroke="#b4dbff" stroke-width="1.5" points="117,-264.1 113.5,-254.1 110,-264.1 117,-264.1"/>
</g>
<!-- 相位解缠 -->
<g id="node7" class="node">
<title>相位解缠</title>
<polygon fill="#cfdbf6" stroke="#cfdbf6" points="150.5,-180 76.5,-180 76.5,-144 150.5,-144 150.5,-180"/>
<text text-anchor="middle" x="113.5" y="-158.3" font-family="Times,serif" font-size="14.00">相位解缠</text>
</g>
<!-- 滤波&#45;&gt;相位解缠 -->
<g id="edge6" class="edge">
<title>滤波&#45;&gt;相位解缠</title>
<path fill="none" stroke="#b4dbff" stroke-width="1.5" stroke-dasharray="5,2" d="M113.5,-215.7C113.5,-208.49 113.5,-199.93 113.5,-191.82"/>
<polygon fill="#b4dbff" stroke="#b4dbff" stroke-width="1.5" points="117,-192.1 113.5,-182.1 110,-192.1 117,-192.1"/>
</g>
<!-- 辅影像 -->
<g id="node5" class="node">
<title>辅影像</title>
<polygon fill="#feb64d" stroke="#feb64d" points="136,-468 81,-468 77,-464 77,-432 132,-432 136,-436 136,-468"/>
<polyline fill="none" stroke="#feb64d" points="132,-464 77,-464"/>
<polyline fill="none" stroke="#feb64d" points="132,-464 132,-432"/>
<polyline fill="none" stroke="#feb64d" points="132,-464 136,-468"/>
<text text-anchor="middle" x="106.5" y="-446.3" font-family="Times,serif" font-size="14.00">辅影像</text>
</g>
<!-- 辅影像&#45;&gt;影像配准 -->
<g id="edge4" class="edge">
<title>辅影像&#45;&gt;影像配准</title>
<path fill="none" stroke="#b4dbff" stroke-width="1.5" stroke-dasharray="5,2" d="M96.86,-431.7C92.61,-424.07 87.51,-414.92 82.76,-406.4"/>
<polygon fill="#b4dbff" stroke="#b4dbff" stroke-width="1.5" points="85.95,-404.14 78.03,-397.1 79.84,-407.54 85.95,-404.14"/>
</g>
<!-- 外部DEM -->
<g id="node6" class="node">
<title>外部DEM</title>
<polygon fill="#feb64d" stroke="#feb64d" points="198.5,-396 126.5,-396 122.5,-392 122.5,-360 194.5,-360 198.5,-364 198.5,-396"/>
<polyline fill="none" stroke="#feb64d" points="194.5,-392 122.5,-392"/>
<polyline fill="none" stroke="#feb64d" points="194.5,-392 194.5,-360"/>
<polyline fill="none" stroke="#feb64d" points="194.5,-392 198.5,-396"/>
<text text-anchor="middle" x="160.5" y="-374.3" font-family="Times,serif" font-size="14.00">外部DEM</text>
</g>
<!-- 外部DEM&#45;&gt;去平地效应 -->
<g id="edge5" class="edge">
<title>外部DEM&#45;&gt;去平地效应</title>
<path fill="none" stroke="#b4dbff" stroke-width="1.5" stroke-dasharray="5,2" d="M148.88,-359.7C143.65,-351.9 137.34,-342.51 131.51,-333.83"/>
<polygon fill="#b4dbff" stroke="#b4dbff" stroke-width="1.5" points="134.46,-331.46 125.98,-325.1 128.65,-335.36 134.46,-331.46"/>
</g>
<!-- 地表形变 -->
<g id="node8" class="node">
<title>地表形变</title>
<polygon fill="#cfdbf6" stroke="#cfdbf6" points="150.5,-108 76.5,-108 76.5,-72 150.5,-72 150.5,-108"/>
<text text-anchor="middle" x="113.5" y="-86.3" font-family="Times,serif" font-size="14.00">地表形变</text>
</g>
<!-- 相位解缠&#45;&gt;地表形变 -->
<g id="edge7" class="edge">
<title>相位解缠&#45;&gt;地表形变</title>
<path fill="none" stroke="#b4dbff" stroke-width="1.5" stroke-dasharray="5,2" d="M113.5,-143.7C113.5,-136.49 113.5,-127.93 113.5,-119.82"/>
<polygon fill="#b4dbff" stroke="#b4dbff" stroke-width="1.5" points="117,-120.1 113.5,-110.1 110,-120.1 117,-120.1"/>
</g>
<!-- 地理编码 -->
<g id="node9" class="node">
<title>地理编码</title>
<polygon fill="#cfdbf6" stroke="#cfdbf6" points="150.5,-36 76.5,-36 76.5,0 150.5,0 150.5,-36"/>
<text text-anchor="middle" x="113.5" y="-14.3" font-family="Times,serif" font-size="14.00">地理编码</text>
</g>
<!-- 地表形变&#45;&gt;地理编码 -->
<g id="edge8" class="edge">
<title>地表形变&#45;&gt;地理编码</title>
<path fill="none" stroke="#b4dbff" stroke-width="1.5" stroke-dasharray="5,2" d="M113.5,-71.7C113.5,-64.49 113.5,-55.93 113.5,-47.82"/>
<polygon fill="#b4dbff" stroke="#b4dbff" stroke-width="1.5" points="117,-48.1 113.5,-38.1 110,-48.1 117,-48.1"/>
</g>
</g>
</svg>
